<svg width="512" height="512" viewBox="0 0 512 512" xmlns="http://www.w3.org/2000/svg">
  <!-- Background Circle -->
  <circle cx="256" cy="256" r="240" fill="#2a2d33" stroke="#363b43" stroke-width="8"/>
  
  <!-- Main Logo Elements -->
  <!-- Dumbbell/Fitness Icon -->
  <g transform="translate(256, 200)">
    <!-- Dumbbell bar -->
    <rect x="-60" y="-8" width="120" height="16" rx="8" fill="#c84545"/>
    
    <!-- Left weight -->
    <rect x="-80" y="-24" width="24" height="48" rx="4" fill="#c84545"/>
    <rect x="-88" y="-16" width="8" height="32" rx="2" fill="#b73e3e"/>
    
    <!-- Right weight -->
    <rect x="56" y="-24" width="24" height="48" rx="4" fill="#c84545"/>
    <rect x="80" y="-16" width="8" height="32" rx="2" fill="#b73e3e"/>
    
    <!-- Center grip -->
    <rect x="-20" y="-12" width="40" height="24" rx="12" fill="#363b43"/>
    <rect x="-16" y="-8" width="32" height="16" rx="8" fill="#414852"/>
  </g>
  
  <!-- Food/Nutrition Icon -->
  <g transform="translate(256, 320)">
    <!-- Plate -->
    <circle cx="0" cy="0" r="48" fill="#363b43" stroke="#414852" stroke-width="3"/>
    <circle cx="0" cy="0" r="40" fill="#2a2d33"/>
    
    <!-- Food items -->
    <!-- Protein (meat) -->
    <ellipse cx="-20" cy="-8" rx="12" ry="8" fill="#c84545"/>
    
    <!-- Vegetables -->
    <circle cx="15" cy="-12" r="8" fill="#4a7c59"/>
    <circle cx="25" cy="0" r="6" fill="#4a7c59"/>
    
    <!-- Carbs -->
    <rect x="-8" y="8" width="16" height="12" rx="6" fill="#d4822a"/>
  </g>
  
  <!-- App Name -->
  <text x="256" y="440" font-family="Arial, sans-serif" font-size="36" font-weight="bold" text-anchor="middle" fill="#f5f5f5">BioCal</text>
  
  <!-- Subtle accent elements -->
  <circle cx="140" cy="120" r="4" fill="#c84545" opacity="0.6"/>
  <circle cx="372" cy="140" r="3" fill="#4a7c59" opacity="0.5"/>
  <circle cx="380" cy="380" r="4" fill="#4f6fa8" opacity="0.4"/>
  <circle cx="120" cy="390" r="3" fill="#d4822a" opacity="0.5"/>
</svg>