<svg width="1024" height="1024" viewBox="0 0 1024 1024" xmlns="http://www.w3.org/2000/svg">
  <defs>
    <!-- Gradient background matching app UI colors -->
    <radialGradient id="appGradient" cx="50%" cy="30%" r="80%">
      <stop offset="0%" style="stop-color:#c84545;stop-opacity:1" />
      <stop offset="40%" style="stop-color:#363b43;stop-opacity:1" />
      <stop offset="100%" style="stop-color:#2a2d33;stop-opacity:1" />
    </radialGradient>
    
    <!-- Subtle inner glow -->
    <radialGradient id="innerGlow" cx="50%" cy="50%" r="60%">
      <stop offset="0%" style="stop-color:#414852;stop-opacity:0.3" />
      <stop offset="100%" style="stop-color:#1e2127;stop-opacity:0" />
    </radialGradient>
  </defs>
  
  <!-- Background with app gradient -->
  <rect width="1024" height="1024" rx="180" fill="url(#appGradient)"/>
  
  <!-- Inner glow overlay -->
  <rect width="1024" height="1024" rx="180" fill="url(#innerGlow)"/>
  
  <!-- Thumbs up emoji - simplified vector version -->
  <g transform="translate(512, 512)">
    <!-- Thumb -->
    <path d="M-80,80 Q-80,40 -40,40 L20,40 Q60,40 60,80 L60,120 Q60,160 20,160 L-40,160 Q-80,160 -80,120 Z" fill="#ffcc4d"/>
    
    <!-- Fingers -->
    <rect x="20" y="-40" width="40" height="80" rx="20" fill="#ffcc4d"/>
    <rect x="50" y="-60" width="40" height="80" rx="20" fill="#ffcc4d"/>
    <rect x="80" y="-50" width="40" height="80" rx="20" fill="#ffcc4d"/>
    <rect x="110" y="-40" width="40" height="80" rx="20" fill="#ffcc4d"/>
    
    <!-- Thumb nail -->
    <ellipse cx="-40" cy="80" rx="12" ry="8" fill="#ffb74d"/>
    
    <!-- Finger nails -->
    <ellipse cx="40" cy="-20" rx="8" ry="6" fill="#ffb74d"/>
    <ellipse cx="70" cy="-40" rx="8" ry="6" fill="#ffb74d"/>
    <ellipse cx="100" cy="-30" rx="8" ry="6" fill="#ffb74d"/>
    <ellipse cx="130" cy="-20" rx="8" ry="6" fill="#ffb74d"/>
    
    <!-- Wrist -->
    <rect x="-120" y="100" width="80" height="60" rx="30" fill="#ffcc4d"/>
    
    <!-- Simple shading for depth -->
    <path d="M-80,120 Q-60,140 -40,140 L20,140 Q40,140 40,120" fill="#ffb74d" opacity="0.3"/>
  </g>
  
  <!-- Subtle highlight for modern look -->
  <circle cx="300" cy="200" r="100" fill="#ffffff" opacity="0.1"/>
</svg>